<svg width="50" height="50" viewBox="0 0 50 50" fill="none" xmlns="http://www.w3.org/2000/svg">
<path d="M36.6728 28.7518C38.4851 26.0934 39.5461 22.8499 39.5461 19.349C39.5461 10.3182 32.4837 3 23.7726 3C15.0616 3 8 10.3182 8 19.3498C8 25.0539 10.8199 30.0777 15.092 33H41L36.6728 28.7518ZM31.9955 24.1589C30.3904 27.1094 27.3462 29.0988 23.8507 29.0988C18.6836 29.0988 14.4945 24.7432 14.4945 19.3675C14.4945 13.9935 18.6836 9.63869 23.8507 9.63869C29.0187 9.63869 33.207 13.9943 33.207 19.3675C33.207 21.1099 32.7673 22.745 31.9955 24.1589Z" fill="currentColor"/>
<path d="M30.8989 49H18.1011C18.0452 49 18 48.9183 18 48.8172V48.1828C18 48.0817 18.0452 48 18.1011 48H30.8989C30.9548 48 31 48.0817 31 48.1828V48.8172C31.0008 48.9168 30.9548 49 30.8989 49Z" fill="currentColor"/>
<path d="M5.83008 37.8906V42.7246C5.82682 43.3952 5.61523 43.9437 5.19531 44.3701C4.77865 44.7965 4.21224 45.0358 3.49609 45.0879L3.24707 45.0977C2.46908 45.0977 1.84896 44.8877 1.38672 44.4678C0.924479 44.0479 0.690104 43.4701 0.683594 42.7344V37.8906H1.61133V42.7051C1.61133 43.2194 1.75293 43.6198 2.03613 43.9062C2.31934 44.1895 2.72298 44.3311 3.24707 44.3311C3.77767 44.3311 4.18294 44.1895 4.46289 43.9062C4.74609 43.623 4.8877 43.2243 4.8877 42.71V37.8906H5.83008ZM12.7734 45H11.8311L8.25195 39.5215V45H7.30957V37.8906H8.25195L11.8408 43.3936V37.8906H12.7734V45ZM15.4443 45H14.5068V37.8906H15.4443V45ZM22.4121 44.0674C22.1712 44.4124 21.8343 44.6712 21.4014 44.8438C20.9717 45.013 20.4704 45.0977 19.8975 45.0977C19.318 45.0977 18.8037 44.9626 18.3545 44.6924C17.9053 44.4189 17.557 44.0316 17.3096 43.5303C17.0654 43.029 16.9401 42.4479 16.9336 41.7871V41.167C16.9336 40.096 17.1826 39.266 17.6807 38.6768C18.182 38.0876 18.8851 37.793 19.79 37.793C20.5322 37.793 21.1296 37.9834 21.582 38.3643C22.0345 38.7419 22.3112 39.279 22.4121 39.9756H21.4746C21.2988 39.0348 20.7389 38.5645 19.7949 38.5645C19.1667 38.5645 18.6898 38.7858 18.3643 39.2285C18.042 39.668 17.8792 40.306 17.876 41.1426V41.7236C17.876 42.5212 18.0583 43.1559 18.4229 43.6279C18.7874 44.0967 19.2806 44.3311 19.9023 44.3311C20.2539 44.3311 20.5615 44.292 20.8252 44.2139C21.0889 44.1357 21.307 44.0039 21.4795 43.8184V42.2217H19.834V41.46H22.4121V44.0674ZM26.5869 42.124H24.917V45H23.9746V37.8906H26.3281C27.1289 37.8906 27.7441 38.0729 28.1738 38.4375C28.6068 38.8021 28.8232 39.3327 28.8232 40.0293C28.8232 40.472 28.7028 40.8577 28.4619 41.1865C28.2243 41.5153 27.8923 41.7611 27.4658 41.9238L29.1357 44.9414V45H28.1299L26.5869 42.124ZM24.917 41.3574H26.3574C26.8229 41.3574 27.1924 41.237 27.4658 40.9961C27.7425 40.7552 27.8809 40.4329 27.8809 40.0293C27.8809 39.5898 27.749 39.2529 27.4854 39.0186C27.2249 38.7842 26.8473 38.6654 26.3525 38.6621H24.917V41.3574ZM35.6104 41.6748C35.6104 42.3714 35.4932 42.9801 35.2588 43.501C35.0244 44.0186 34.6924 44.4141 34.2627 44.6875C33.833 44.9609 33.3317 45.0977 32.7588 45.0977C32.1989 45.0977 31.7025 44.9609 31.2695 44.6875C30.8366 44.4108 30.4997 44.0186 30.2588 43.5107C30.0212 42.9997 29.8991 42.4089 29.8926 41.7383V41.2256C29.8926 40.542 30.0114 39.9382 30.249 39.4141C30.4867 38.89 30.8219 38.4896 31.2549 38.2129C31.6911 37.9329 32.1891 37.793 32.749 37.793C33.3187 37.793 33.82 37.9313 34.2529 38.208C34.6891 38.4814 35.0244 38.8802 35.2588 39.4043C35.4932 39.9251 35.6104 40.5322 35.6104 41.2256V41.6748ZM34.6777 41.2158C34.6777 40.3727 34.5085 39.7266 34.1699 39.2773C33.8314 38.8249 33.3577 38.5986 32.749 38.5986C32.1566 38.5986 31.6895 38.8249 31.3477 39.2773C31.0091 39.7266 30.835 40.3516 30.8252 41.1523V41.6748C30.8252 42.4919 30.9961 43.1348 31.3379 43.6035C31.6829 44.069 32.1566 44.3018 32.7588 44.3018C33.3643 44.3018 33.833 44.082 34.165 43.6426C34.4971 43.1999 34.668 42.5667 34.6777 41.7432V41.2158ZM42.0215 37.8906V42.7246C42.0182 43.3952 41.8066 43.9437 41.3867 44.3701C40.9701 44.7965 40.4036 45.0358 39.6875 45.0879L39.4385 45.0977C38.6605 45.0977 38.0404 44.8877 37.5781 44.4678C37.1159 44.0479 36.8815 43.4701 36.875 42.7344V37.8906H37.8027V42.7051C37.8027 43.2194 37.9443 43.6198 38.2275 43.9062C38.5107 44.1895 38.9144 44.3311 39.4385 44.3311C39.9691 44.3311 40.3743 44.1895 40.6543 43.9062C40.9375 43.623 41.0791 43.2243 41.0791 42.71V37.8906H42.0215ZM44.4385 42.2168V45H43.501V37.8906H46.123C46.901 37.8906 47.5098 38.0892 47.9492 38.4863C48.3919 38.8835 48.6133 39.4092 48.6133 40.0635C48.6133 40.7536 48.3968 41.2858 47.9639 41.6602C47.5342 42.0312 46.9173 42.2168 46.1133 42.2168H44.4385ZM44.4385 41.4502H46.123C46.6243 41.4502 47.0085 41.333 47.2754 41.0986C47.5423 40.861 47.6758 40.5192 47.6758 40.0732C47.6758 39.6501 47.5423 39.3115 47.2754 39.0576C47.0085 38.8037 46.6423 38.6719 46.1768 38.6621H44.4385V41.4502Z" fill="currentColor"/>
<path d="M5.83008 37.8906H6.08725V37.6335H5.83008V37.8906ZM5.83008 42.7246L6.08725 42.7259V42.7246H5.83008ZM5.19531 44.3701L5.01207 44.1897L5.01137 44.1904L5.19531 44.3701ZM3.49609 45.0879L3.50618 45.345L3.51475 45.3444L3.49609 45.0879ZM3.24707 45.0977V45.355L3.25715 45.3546L3.24707 45.0977ZM0.683594 42.7344H0.426412L0.426432 42.7367L0.683594 42.7344ZM0.683594 37.8906V37.6335H0.426422V37.8906H0.683594ZM1.61133 37.8906H1.8685V37.6335H1.61133V37.8906ZM2.03613 43.9062L1.85325 44.0871L1.85428 44.0881L2.03613 43.9062ZM4.46289 43.9062L4.28104 43.7244L4.27999 43.7255L4.46289 43.9062ZM4.8877 37.8906V37.6335H4.63052V37.8906H4.8877ZM5.57291 37.8906V42.7246H6.08725V37.8906H5.57291ZM5.57291 42.7234C5.56994 43.3356 5.37909 43.817 5.01207 44.1897L5.37855 44.5506C5.85138 44.0704 6.08371 43.4547 6.08725 42.7259L5.57291 42.7234ZM5.01137 44.1904C4.64716 44.5631 4.1444 44.7829 3.47744 44.8314L3.51475 45.3444C4.28008 45.2887 4.91013 45.03 5.37925 44.5498L5.01137 44.1904ZM3.48602 44.8309L3.23699 44.8407L3.25715 45.3546L3.50617 45.3449L3.48602 44.8309ZM3.24707 44.8405C2.51664 44.8405 1.96369 44.6445 1.55964 44.2774L1.21379 44.6581C1.73423 45.1309 2.42151 45.3548 3.24707 45.3548V44.8405ZM1.55964 44.2774C1.15997 43.9143 0.946755 43.41 0.940756 42.7321L0.426432 42.7367C0.433453 43.5301 0.688993 44.1814 1.21379 44.6581L1.55964 44.2774ZM0.940766 42.7344V37.8906H0.426422V42.7344H0.940766ZM0.683594 38.1478H1.61133V37.6335H0.683594V38.1478ZM1.35416 37.8906V42.7051H1.8685V37.8906H1.35416ZM1.35416 42.7051C1.35416 43.2675 1.51024 43.7401 1.85325 44.0871L2.21902 43.7254C1.99562 43.4995 1.8685 43.1713 1.8685 42.7051H1.35416ZM1.85428 44.0881C2.19926 44.4331 2.67666 44.5882 3.24707 44.5882V44.0739C2.7693 44.0739 2.43942 43.9458 2.21798 43.7244L1.85428 44.0881ZM3.24707 44.5882C3.82274 44.5882 4.30311 44.4337 4.64579 44.087L4.27999 43.7255C4.06277 43.9452 3.7326 44.0739 3.24707 44.0739V44.5882ZM4.64474 44.0881C4.98884 43.744 5.14487 43.2722 5.14487 42.71H4.63052C4.63052 43.1764 4.50335 43.5021 4.28104 43.7244L4.64474 44.0881ZM5.14487 42.71V37.8906H4.63052V42.71H5.14487ZM4.8877 38.1478H5.83008V37.6335H4.8877V38.1478ZM12.7734 45V45.2572H13.0306V45H12.7734ZM11.8311 45L11.6158 45.1407L11.6919 45.2572H11.8311V45ZM8.25195 39.5215L8.46725 39.3808L7.99478 38.6576V39.5215H8.25195ZM8.25195 45V45.2572H8.50912V45H8.25195ZM7.30957 45H7.0524V45.2572H7.30957V45ZM7.30957 37.8906V37.6335H7.0524V37.8906H7.30957ZM8.25195 37.8906L8.46736 37.7501L8.39126 37.6335H8.25195V37.8906ZM11.8408 43.3936L11.6254 43.534L12.098 44.2587V43.3936H11.8408ZM11.8408 37.8906V37.6335H11.5836V37.8906H11.8408ZM12.7734 37.8906H13.0306V37.6335H12.7734V37.8906ZM12.7734 44.7428H11.8311V45.2572H12.7734V44.7428ZM12.0464 44.8593L8.46725 39.3808L8.03665 39.6621L11.6158 45.1407L12.0464 44.8593ZM7.99478 39.5215V45H8.50912V39.5215H7.99478ZM8.25195 44.7428H7.30957V45.2572H8.25195V44.7428ZM7.56674 45V37.8906H7.0524V45H7.56674ZM7.30957 38.1478H8.25195V37.6335H7.30957V38.1478ZM8.03654 38.0311L11.6254 43.534L12.0562 43.2531L8.46736 37.7501L8.03654 38.0311ZM12.098 43.3936V37.8906H11.5836V43.3936H12.098ZM11.8408 38.1478H12.7734V37.6335H11.8408V38.1478ZM12.5163 37.8906V45H13.0306V37.8906H12.5163ZM15.4443 45V45.2572H15.7015V45H15.4443ZM14.5068 45H14.2497V45.2572H14.5068V45ZM14.5068 37.8906V37.6335H14.2497V37.8906H14.5068ZM15.4443 37.8906H15.7015V37.6335H15.4443V37.8906ZM15.4443 44.7428H14.5068V45.2572H15.4443V44.7428ZM14.764 45V37.8906H14.2497V45H14.764ZM14.5068 38.1478H15.4443V37.6335H14.5068V38.1478ZM15.1872 37.8906V45H15.7015V37.8906H15.1872ZM22.4121 44.0674L22.623 44.2146L22.6693 44.1483V44.0674H22.4121ZM21.4014 44.8438L21.4956 45.083L21.4966 45.0827L21.4014 44.8438ZM18.3545 44.6924L18.2208 44.9121L18.2219 44.9128L18.3545 44.6924ZM17.3096 43.5303L17.0784 43.6429L17.079 43.6441L17.3096 43.5303ZM16.9336 41.7871H16.6764L16.6764 41.7896L16.9336 41.7871ZM17.6807 38.6768L17.4848 38.5101L17.4843 38.5107L17.6807 38.6768ZM21.582 38.3643L21.4164 38.561L21.4173 38.5617L21.582 38.3643ZM22.4121 39.9756V40.2328H22.7092L22.6666 39.9387L22.4121 39.9756ZM21.4746 39.9756L21.2218 40.0228L21.261 40.2328H21.4746V39.9756ZM18.3643 39.2285L18.1571 39.0762L18.1569 39.0764L18.3643 39.2285ZM17.876 41.1426L17.6188 41.1416V41.1426H17.876ZM18.4229 43.6279L18.2193 43.7851L18.2199 43.7858L18.4229 43.6279ZM21.4795 43.8184L21.6678 43.9935L21.7367 43.9194V43.8184H21.4795ZM21.4795 42.2217H21.7367V41.9645H21.4795V42.2217ZM19.834 42.2217H19.5768V42.4789H19.834V42.2217ZM19.834 41.46V41.2028H19.5768V41.46H19.834ZM22.4121 41.46H22.6693V41.2028H22.4121V41.46ZM22.2012 43.9202C21.9922 44.2196 21.6976 44.4489 21.3062 44.6048L21.4966 45.0827C21.971 44.8936 22.3503 44.6052 22.623 44.2146L22.2012 43.9202ZM21.3071 44.6045C20.9137 44.7595 20.4456 44.8405 19.8975 44.8405V45.3548C20.4951 45.3548 21.0297 45.2666 21.4956 45.083L21.3071 44.6045ZM19.8975 44.8405C19.3597 44.8405 18.8921 44.7156 18.487 44.472L18.2219 44.9128C18.7153 45.2095 19.2764 45.3548 19.8975 45.3548V44.8405ZM18.4882 44.4727C18.0833 44.2263 17.7674 43.8769 17.5402 43.4165L17.079 43.6441C17.3465 44.1863 17.7272 44.6116 18.2208 44.9121L18.4882 44.4727ZM17.5408 43.4177C17.3162 42.9565 17.197 42.4142 17.1908 41.7846L16.6764 41.7896C16.6833 42.4816 16.8147 43.1015 17.0784 43.6429L17.5408 43.4177ZM17.1908 41.7871V41.167H16.6764V41.7871H17.1908ZM17.1908 41.167C17.1908 40.1334 17.4311 39.3703 17.8771 38.8428L17.4843 38.5107C16.9341 39.1616 16.6764 40.0587 16.6764 41.167H17.1908ZM17.8765 38.8434C18.3205 38.3216 18.9463 38.0501 19.79 38.0501V37.5358C18.8239 37.5358 18.0435 37.8535 17.4848 38.5101L17.8765 38.8434ZM19.79 38.0501C20.4875 38.0501 21.0212 38.2283 21.4164 38.561L21.7476 38.1675C21.2379 37.7385 20.5769 37.5358 19.79 37.5358V38.0501ZM21.4173 38.5617C21.8119 38.8911 22.0639 39.3657 22.1576 40.0125L22.6666 39.9387C22.5585 39.1922 22.2571 38.5927 21.7468 38.1668L21.4173 38.5617ZM22.4121 39.7184H21.4746V40.2328H22.4121V39.7184ZM21.7274 39.9284C21.632 39.4177 21.4262 39.0042 21.0883 38.7203C20.7499 38.4361 20.3095 38.3073 19.7949 38.3073V38.8216C20.2243 38.8216 20.5359 38.928 20.7574 39.1141C20.9794 39.3006 21.1414 39.5927 21.2218 40.0228L21.7274 39.9284ZM19.7949 38.3073C19.0983 38.3073 18.5385 38.5574 18.1571 39.0762L18.5714 39.3809C18.8411 39.0142 19.235 38.8216 19.7949 38.8216V38.3073ZM18.1569 39.0764C17.7894 39.5775 17.6222 40.2779 17.6188 41.1416L18.1331 41.1436C18.1363 40.334 18.2946 39.7584 18.5716 39.3806L18.1569 39.0764ZM17.6188 41.1426V41.7236H18.1331V41.1426H17.6188ZM17.6188 41.7236C17.6188 42.559 17.8099 43.255 18.2193 43.7851L18.6264 43.4707C18.3067 43.0568 18.1331 42.4834 18.1331 41.7236H17.6188ZM18.2199 43.7858C18.6358 44.3206 19.2056 44.5882 19.9023 44.5882V44.0739C19.3556 44.0739 18.9391 43.8728 18.6259 43.47L18.2199 43.7858ZM19.9023 44.5882C20.2721 44.5882 20.6053 44.5472 20.8983 44.4604L20.7521 43.9673C20.5177 44.0368 20.2357 44.0739 19.9023 44.0739V44.5882ZM20.8983 44.4604C21.2022 44.3704 21.4613 44.2156 21.6678 43.9935L21.2912 43.6432C21.1526 43.7922 20.9756 43.9011 20.7521 43.9673L20.8983 44.4604ZM21.7367 43.8184V42.2217H21.2223V43.8184H21.7367ZM21.4795 41.9645H19.834V42.4789H21.4795V41.9645ZM20.0912 42.2217V41.46H19.5768V42.2217H20.0912ZM19.834 41.7171H22.4121V41.2028H19.834V41.7171ZM22.1549 41.46V44.0674H22.6693V41.46H22.1549ZM26.5869 42.124L26.8135 42.0024L26.7408 41.8669H26.5869V42.124ZM24.917 42.124V41.8669H24.6598V42.124H24.917ZM24.917 45V45.2572H25.1742V45H24.917ZM23.9746 45H23.7174V45.2572H23.9746V45ZM23.9746 37.8906V37.6335H23.7174V37.8906H23.9746ZM28.1738 38.4375L28.0074 38.6336L28.0082 38.6342L28.1738 38.4375ZM28.4619 41.1865L28.2545 41.0345L28.2535 41.0359L28.4619 41.1865ZM27.4658 41.9238L27.3741 41.6836L27.0974 41.7892L27.2408 42.0484L27.4658 41.9238ZM29.1357 44.9414H29.3929V44.875L29.3608 44.8169L29.1357 44.9414ZM29.1357 45V45.2572H29.3929V45H29.1357ZM28.1299 45L27.9033 45.1216L27.976 45.2572H28.1299V45ZM24.917 41.3574H24.6598V41.6146H24.917V41.3574ZM27.4658 40.9961L27.297 40.8021L27.2958 40.8031L27.4658 40.9961ZM27.4854 39.0186L27.3133 39.2097L27.3145 39.2108L27.4854 39.0186ZM26.3525 38.6621L26.3542 38.4049H26.3525V38.6621ZM24.917 38.6621V38.4049H24.6598V38.6621H24.917ZM26.5869 41.8669H24.917V42.3812H26.5869V41.8669ZM24.6598 42.124V45H25.1742V42.124H24.6598ZM24.917 44.7428H23.9746V45.2572H24.917V44.7428ZM24.2318 45V37.8906H23.7174V45H24.2318ZM23.9746 38.1478H26.3281V37.6335H23.9746V38.1478ZM26.3281 38.1478C27.0933 38.1478 27.6404 38.3222 28.0074 38.6336L28.3402 38.2414C27.8479 37.8236 27.1646 37.6335 26.3281 37.6335V38.1478ZM28.0082 38.6342C28.3699 38.9388 28.5661 39.3894 28.5661 40.0293H29.0804C29.0804 39.2759 28.8436 38.6653 28.3395 38.2408L28.0082 38.6342ZM28.5661 40.0293C28.5661 40.4223 28.4602 40.7537 28.2545 41.0345L28.6694 41.3385C28.9454 40.9618 29.0804 40.5217 29.0804 40.0293H28.5661ZM28.2535 41.0359C28.0488 41.3191 27.7598 41.5364 27.3741 41.6836L27.5575 42.1641C28.0247 41.9858 28.3998 41.7115 28.6703 41.3372L28.2535 41.0359ZM27.2408 42.0484L28.9107 45.0659L29.3608 44.8169L27.6908 41.7993L27.2408 42.0484ZM28.8786 44.9414V45H29.3929V44.9414H28.8786ZM29.1357 44.7428H28.1299V45.2572H29.1357V44.7428ZM28.3565 44.8784L26.8135 42.0024L26.3603 42.2456L27.9033 45.1216L28.3565 44.8784ZM24.917 41.6146H26.3574V41.1002H24.917V41.6146ZM26.3574 41.6146C26.8676 41.6146 27.3035 41.4818 27.6358 41.1891L27.2958 40.8031C27.0812 40.9922 26.7782 41.1002 26.3574 41.1002V41.6146ZM27.6347 41.1901C27.9735 40.8951 28.138 40.4989 28.138 40.0293H27.6237C27.6237 40.3669 27.5115 40.6153 27.297 40.8021L27.6347 41.1901ZM28.138 40.0293C28.138 39.5358 27.9878 39.1211 27.6562 38.8263L27.3145 39.2108C27.5102 39.3848 27.6237 39.6438 27.6237 40.0293H28.138ZM27.6574 38.8274C27.334 38.5364 26.8862 38.4084 26.3542 38.4049L26.3508 38.9193C26.8085 38.9223 27.1158 39.032 27.3133 39.2097L27.6574 38.8274ZM26.3525 38.4049H24.917V38.9193H26.3525V38.4049ZM24.6598 38.6621V41.3574H25.1742V38.6621H24.6598ZM35.2588 43.501L35.4931 43.6071L35.4933 43.6065L35.2588 43.501ZM31.2695 44.6875L31.131 44.9042L31.1322 44.9049L31.2695 44.6875ZM30.2588 43.5107L30.0256 43.6192L30.0264 43.621L30.2588 43.5107ZM29.8926 41.7383H29.6354L29.6354 41.7408L29.8926 41.7383ZM31.2549 38.2129L31.3934 38.4296L31.3938 38.4293L31.2549 38.2129ZM34.2529 38.208L34.1144 38.4247L34.1163 38.4259L34.2529 38.208ZM35.2588 39.4043L35.024 39.5093L35.0243 39.5098L35.2588 39.4043ZM34.1699 39.2773L33.964 39.4314L33.9645 39.4321L34.1699 39.2773ZM31.3477 39.2773L31.1425 39.1223L31.1423 39.1226L31.3477 39.2773ZM30.8252 41.1523L30.568 41.1492V41.1523H30.8252ZM31.3379 43.6035L31.1301 43.755L31.1313 43.7567L31.3379 43.6035ZM34.165 43.6426L34.3702 43.7976L34.3708 43.7969L34.165 43.6426ZM34.6777 41.7432L34.9349 41.7462V41.7432H34.6777ZM35.3532 41.6748C35.3532 42.3429 35.2408 42.9142 35.0243 43.3954L35.4933 43.6065C35.7455 43.046 35.8675 42.4 35.8675 41.6748H35.3532ZM35.0245 43.3949C34.8083 43.8724 34.5074 44.227 34.1246 44.4705L34.4008 44.9045C34.8774 44.6012 35.2405 44.1647 35.4931 43.6071L35.0245 43.3949ZM34.1246 44.4705C33.7412 44.7145 33.2891 44.8405 32.7588 44.8405V45.3548C33.3743 45.3548 33.9248 45.2073 34.4008 44.9045L34.1246 44.4705ZM32.7588 44.8405C32.2428 44.8405 31.7949 44.7151 31.4069 44.4701L31.1322 44.9049C31.6101 45.2067 32.155 45.3548 32.7588 45.3548V44.8405ZM31.408 44.4708C31.0195 44.2225 30.7134 43.869 30.4911 43.4005L30.0264 43.621C30.286 44.1681 30.6537 44.5991 31.131 44.9042L31.408 44.4708ZM30.492 43.4023C30.2724 42.9301 30.156 42.3766 30.1497 41.7358L29.6354 41.7408C29.6422 42.4411 29.7699 43.0692 30.0256 43.6192L30.492 43.4023ZM30.1497 41.7383V41.2256H29.6354V41.7383H30.1497ZM30.1497 41.2256C30.1497 40.5718 30.2633 40.0053 30.4832 39.5203L30.0148 39.3079C29.7595 39.871 29.6354 40.5122 29.6354 41.2256H30.1497ZM30.4832 39.5203C30.7029 39.0359 31.0073 38.6763 31.3934 38.4296L31.1164 37.9962C30.6366 38.3028 30.2704 38.7441 30.0148 39.3079L30.4832 39.5203ZM31.3938 38.4293C31.7852 38.1781 32.2343 38.0501 32.749 38.0501V37.5358C32.144 37.5358 31.597 37.6878 31.116 37.9965L31.3938 38.4293ZM32.749 38.0501C33.2751 38.0501 33.7273 38.1773 34.1144 38.4247L34.3914 37.9913C33.9127 37.6854 33.3622 37.5358 32.749 37.5358V38.0501ZM34.1163 38.4259C34.5045 38.6692 34.808 39.0262 35.024 39.5093L35.4936 39.2993C35.2409 38.7342 34.8738 38.2937 34.3895 37.9901L34.1163 38.4259ZM35.0243 39.5098C35.2409 39.9912 35.3532 40.561 35.3532 41.2256H35.8675C35.8675 40.5035 35.7455 39.8591 35.4933 39.2988L35.0243 39.5098ZM35.3532 41.2256V41.6748H35.8675V41.2256H35.3532ZM34.9349 41.2158C34.9349 40.3434 34.7605 39.6337 34.3753 39.1226L33.9645 39.4321C34.2564 39.8194 34.4206 40.4021 34.4206 41.2158H34.9349ZM34.3758 39.1233C33.9845 38.6003 33.4315 38.3415 32.749 38.3415V38.8558C33.284 38.8558 33.6782 39.0494 33.964 39.4314L34.3758 39.1233ZM32.749 38.3415C32.0802 38.3415 31.5353 38.6022 31.1425 39.1223L31.5529 39.4324C31.8436 39.0475 32.233 38.8558 32.749 38.8558V38.3415ZM31.1423 39.1226C30.7594 39.6306 30.5782 40.3161 30.568 41.1492L31.0823 41.1555C31.0917 40.387 31.2588 39.8225 31.553 39.4321L31.1423 39.1226ZM30.568 41.1523V41.6748H31.0824V41.1523H30.568ZM30.568 41.6748C30.568 42.5247 30.7455 43.2276 31.1301 43.755L31.5457 43.452C31.2467 43.042 31.0824 42.459 31.0824 41.6748H30.568ZM31.1313 43.7567C31.527 44.2906 32.0789 44.5589 32.7588 44.5589V44.0446C32.2343 44.0446 31.8388 43.8475 31.5445 43.4504L31.1313 43.7567ZM32.7588 44.5589C33.4357 44.5589 33.9843 44.3084 34.3702 43.7976L33.9599 43.4875C33.6817 43.8556 33.2929 44.0446 32.7588 44.0446V44.5589ZM34.3708 43.7969C34.7481 43.2938 34.9248 42.599 34.9349 41.7462L34.4206 41.7401C34.4112 42.5344 34.2461 43.1059 33.9593 43.4883L34.3708 43.7969ZM34.9349 41.7432V41.2158H34.4206V41.7432H34.9349ZM42.0215 37.8906H42.2787V37.6335H42.0215V37.8906ZM42.0215 42.7246L42.2787 42.7259V42.7246H42.0215ZM41.3867 44.3701L41.2035 44.1897L41.2028 44.1904L41.3867 44.3701ZM39.6875 45.0879L39.6976 45.345L39.7062 45.3444L39.6875 45.0879ZM39.4385 45.0977V45.355L39.4486 45.3546L39.4385 45.0977ZM36.875 42.7344H36.6178L36.6178 42.7367L36.875 42.7344ZM36.875 37.8906V37.6335H36.6178V37.8906H36.875ZM37.8027 37.8906H38.0599V37.6335H37.8027V37.8906ZM38.2275 43.9062L38.0447 44.0871L38.0457 44.0881L38.2275 43.9062ZM40.6543 43.9062L40.4724 43.7244L40.4714 43.7255L40.6543 43.9062ZM41.0791 37.8906V37.6335H40.8219V37.8906H41.0791ZM41.7643 37.8906V42.7246H42.2787V37.8906H41.7643ZM41.7643 42.7234C41.7613 43.3356 41.5705 43.817 41.2035 44.1897L41.57 44.5506C42.0428 44.0704 42.2751 43.4547 42.2787 42.7259L41.7643 42.7234ZM41.2028 44.1904C40.8386 44.5631 40.3358 44.7829 39.6688 44.8314L39.7062 45.3444C40.4715 45.2887 41.1015 45.03 41.5707 44.5498L41.2028 44.1904ZM39.6774 44.8309L39.4284 44.8407L39.4486 45.3546L39.6976 45.3449L39.6774 44.8309ZM39.4385 44.8405C38.708 44.8405 38.1551 44.6445 37.751 44.2774L37.4052 44.6581C37.9256 45.1309 38.6129 45.3548 39.4385 45.3548V44.8405ZM37.751 44.2774C37.3514 43.9143 37.1382 43.41 37.1322 42.7321L36.6178 42.7367C36.6249 43.5301 36.8804 44.1814 37.4052 44.6581L37.751 44.2774ZM37.1322 42.7344V37.8906H36.6178V42.7344H37.1322ZM36.875 38.1478H37.8027V37.6335H36.875V38.1478ZM37.5456 37.8906V42.7051H38.0599V37.8906H37.5456ZM37.5456 42.7051C37.5456 43.2675 37.7016 43.7401 38.0447 44.0871L38.4104 43.7254C38.187 43.4995 38.0599 43.1713 38.0599 42.7051H37.5456ZM38.0457 44.0881C38.3907 44.4331 38.8681 44.5882 39.4385 44.5882V44.0739C38.9607 44.0739 38.6308 43.9458 38.4094 43.7244L38.0457 44.0881ZM39.4385 44.5882C40.0141 44.5882 40.4945 44.4337 40.8372 44.087L40.4714 43.7255C40.2542 43.9452 39.924 44.0739 39.4385 44.0739V44.5882ZM40.8361 44.0881C41.1802 43.744 41.3363 43.2722 41.3363 42.71H40.8219C40.8219 43.1764 40.6948 43.5021 40.4725 43.7244L40.8361 44.0881ZM41.3363 42.71V37.8906H40.8219V42.71H41.3363ZM41.0791 38.1478H42.0215V37.6335H41.0791V38.1478ZM44.4385 42.2168V41.9596H44.1813V42.2168H44.4385ZM44.4385 45V45.2572H44.6956V45H44.4385ZM43.501 45H43.2438V45.2572H43.501V45ZM43.501 37.8906V37.6335H43.2438V37.8906H43.501ZM47.9492 38.4863L47.7768 38.6771L47.7775 38.6778L47.9492 38.4863ZM47.9639 41.6602L48.132 41.8548L48.1321 41.8547L47.9639 41.6602ZM44.4385 41.4502H44.1813V41.7074H44.4385V41.4502ZM47.2754 41.0986L47.4451 41.2919L47.4464 41.2907L47.2754 41.0986ZM46.1768 38.6621L46.1822 38.4049H46.1768V38.6621ZM44.4385 38.6621V38.4049H44.1813V38.6621H44.4385ZM44.1813 42.2168V45H44.6956V42.2168H44.1813ZM44.4385 44.7428H43.501V45.2572H44.4385V44.7428ZM43.7581 45V37.8906H43.2438V45H43.7581ZM43.501 38.1478H46.123V37.6335H43.501V38.1478ZM46.123 38.1478C46.8578 38.1478 47.3978 38.3347 47.7768 38.6771L48.1216 38.2955C47.6217 37.8437 46.9443 37.6335 46.123 37.6335V38.1478ZM47.7775 38.6778C48.16 39.0209 48.3561 39.474 48.3561 40.0635H48.8705C48.8705 39.3443 48.6238 38.746 48.1209 38.2949L47.7775 38.6778ZM48.3561 40.0635C48.3561 40.6957 48.1605 41.1501 47.7957 41.4656L48.1321 41.8547C48.6331 41.4215 48.8705 40.8114 48.8705 40.0635H48.3561ZM47.7958 41.4655C47.429 41.7823 46.881 41.9596 46.1133 41.9596V42.474C46.9536 42.474 47.6394 42.2802 48.132 41.8548L47.7958 41.4655ZM46.1133 41.9596H44.4385V42.474H46.1133V41.9596ZM44.4385 41.7074H46.123V41.193H44.4385V41.7074ZM46.123 41.7074C46.6613 41.7074 47.1151 41.5816 47.4451 41.2919L47.1057 40.9054C46.9019 41.0844 46.5874 41.193 46.123 41.193V41.7074ZM47.4464 41.2907C47.7812 40.9926 47.933 40.573 47.933 40.0732H47.4186C47.4186 40.4654 47.3034 40.7294 47.1044 40.9065L47.4464 41.2907ZM47.933 40.0732C47.933 39.5911 47.7783 39.1811 47.4526 38.8713L47.0981 39.244C47.3063 39.4419 47.4186 39.709 47.4186 40.0732H47.933ZM47.4526 38.8713C47.1279 38.5624 46.6942 38.4157 46.1822 38.405L46.1714 38.9192C46.5903 38.928 46.889 39.045 47.0981 39.244L47.4526 38.8713ZM46.1768 38.4049H44.4385V38.9193H46.1768V38.4049ZM44.1813 38.6621V41.4502H44.6956V38.6621H44.1813Z" fill="currentColor"/>
</svg>
