<svg width="10" height="10" viewBox="0 0 10 10" fill="none" xmlns="http://www.w3.org/2000/svg">
<path d="M9.28025 8.21975L7.37638 6.31588C7.76975 5.723 8 5.01312 8 4.25C8 2.18225 6.31775 0.5 4.25 0.5C2.18225 0.5 0.5 2.18225 0.5 4.25C0.5 6.31775 2.18225 8 4.25 8C5.01312 8 5.723 7.76975 6.31588 7.37638L8.21975 9.28025C8.51225 9.57312 8.98775 9.57312 9.28025 9.28025C9.57312 8.98738 9.57312 8.51262 9.28025 8.21975ZM1.625 4.25C1.625 2.8025 2.8025 1.625 4.25 1.625C5.6975 1.625 6.875 2.8025 6.875 4.25C6.875 5.6975 5.6975 6.875 4.25 6.875C2.8025 6.875 1.625 5.6975 1.625 4.25Z" fill="#697386"/>
</svg>
